<svg xmlns="http://www.w3.org/2000/svg" xmlns:xlink="http://www.w3.org/1999/xlink" width="500" zoomAndPan="magnify" viewBox="0 0 375 374.999991" height="500" preserveAspectRatio="xMidYMid meet" version="1.0"><defs><g/></defs><g fill="#ff6900" fill-opacity="1"><g transform="translate(57.364227, 209.999986)"><g><path d="M 4.96875 -68.328125 L 26.171875 -68.328125 C 32.578125 -68.328125 37.679688 -66.957031 41.484375 -64.21875 C 45.296875 -61.488281 47.203125 -57.0625 47.203125 -50.9375 C 47.203125 -44.082031 44.359375 -39.191406 38.671875 -36.265625 C 48.390625 -34.554688 53.25 -28.816406 53.25 -19.046875 C 53.25 -13.304688 51.257812 -8.695312 47.28125 -5.21875 C 43.3125 -1.738281 37.847656 0 30.890625 0 L 4.96875 0 Z M 20.53125 -41.578125 L 21.78125 -41.578125 C 25.257812 -41.578125 27.851562 -42.179688 29.5625 -43.390625 C 31.269531 -44.609375 32.125 -46.597656 32.125 -49.359375 C 32.125 -53.992188 28.675781 -56.3125 21.78125 -56.3125 L 20.53125 -56.3125 Z M 20.53125 -12.015625 L 25.421875 -12.015625 C 33.046875 -12.015625 36.859375 -14.550781 36.859375 -19.625 C 36.859375 -22.664062 35.90625 -24.847656 34 -26.171875 C 32.09375 -27.492188 29.234375 -28.15625 25.421875 -28.15625 L 20.53125 -28.15625 Z M 20.53125 -12.015625 "/></g></g></g><g fill="#ff6900" fill-opacity="1"><g transform="translate(106.052586, 209.999986)"><g><path d="M 47.953125 -19.21875 L 17.140625 -19.21875 C 17.140625 -16.226562 18.101562 -14.015625 20.03125 -12.578125 C 21.96875 -11.148438 24.066406 -10.4375 26.328125 -10.4375 C 28.703125 -10.4375 30.578125 -10.753906 31.953125 -11.390625 C 33.335938 -12.023438 34.914062 -13.28125 36.6875 -15.15625 L 47.28125 -9.859375 C 42.863281 -2.453125 35.523438 1.25 25.265625 1.25 C 18.859375 1.25 13.363281 -0.941406 8.78125 -5.328125 C 4.195312 -9.722656 1.90625 -15.007812 1.90625 -21.1875 C 1.90625 -27.375 4.195312 -32.675781 8.78125 -37.09375 C 13.363281 -41.507812 18.859375 -43.71875 25.265625 -43.71875 C 31.992188 -43.71875 37.46875 -41.769531 41.6875 -37.875 C 45.914062 -33.988281 48.03125 -28.429688 48.03125 -21.203125 C 48.03125 -20.203125 48.003906 -19.539062 47.953125 -19.21875 Z M 17.5625 -27.328125 L 33.703125 -27.328125 C 33.367188 -29.535156 32.5 -31.234375 31.09375 -32.421875 C 29.6875 -33.609375 27.878906 -34.203125 25.671875 -34.203125 C 23.242188 -34.203125 21.3125 -33.566406 19.875 -32.296875 C 18.4375 -31.023438 17.664062 -29.367188 17.5625 -27.328125 Z M 17.5625 -27.328125 "/></g></g></g><g fill="#ff6900" fill-opacity="1"><g transform="translate(149.524258, 209.999986)"><g><path d="M 47.953125 -19.21875 L 17.140625 -19.21875 C 17.140625 -16.226562 18.101562 -14.015625 20.03125 -12.578125 C 21.96875 -11.148438 24.066406 -10.4375 26.328125 -10.4375 C 28.703125 -10.4375 30.578125 -10.753906 31.953125 -11.390625 C 33.335938 -12.023438 34.914062 -13.28125 36.6875 -15.15625 L 47.28125 -9.859375 C 42.863281 -2.453125 35.523438 1.25 25.265625 1.25 C 18.859375 1.25 13.363281 -0.941406 8.78125 -5.328125 C 4.195312 -9.722656 1.90625 -15.007812 1.90625 -21.1875 C 1.90625 -27.375 4.195312 -32.675781 8.78125 -37.09375 C 13.363281 -41.507812 18.859375 -43.71875 25.265625 -43.71875 C 31.992188 -43.71875 37.46875 -41.769531 41.6875 -37.875 C 45.914062 -33.988281 48.03125 -28.429688 48.03125 -21.203125 C 48.03125 -20.203125 48.003906 -19.539062 47.953125 -19.21875 Z M 17.5625 -27.328125 L 33.703125 -27.328125 C 33.367188 -29.535156 32.5 -31.234375 31.09375 -32.421875 C 29.6875 -33.609375 27.878906 -34.203125 25.671875 -34.203125 C 23.242188 -34.203125 21.3125 -33.566406 19.875 -32.296875 C 18.4375 -31.023438 17.664062 -29.367188 17.5625 -27.328125 Z M 17.5625 -27.328125 "/></g></g></g><g fill="#ff6900" fill-opacity="1"><g transform="translate(192.995931, 209.999986)"><g><path d="M 4.96875 -68.328125 L 29.40625 -68.328125 C 35.96875 -68.328125 41.316406 -66.570312 45.453125 -63.0625 C 49.597656 -59.550781 51.671875 -54.539062 51.671875 -48.03125 C 51.671875 -43.007812 50.414062 -38.800781 47.90625 -35.40625 C 45.394531 -32.007812 41.988281 -29.617188 37.6875 -28.234375 L 61.203125 0 L 41.40625 0 L 20.53125 -27 L 20.53125 0 L 4.96875 0 Z M 20.53125 -38.015625 L 22.359375 -38.015625 C 23.796875 -38.015625 25.007812 -38.039062 26 -38.09375 C 27 -38.144531 28.128906 -38.335938 29.390625 -38.671875 C 30.660156 -39.003906 31.679688 -39.472656 32.453125 -40.078125 C 33.234375 -40.691406 33.898438 -41.578125 34.453125 -42.734375 C 35.003906 -43.890625 35.28125 -45.296875 35.28125 -46.953125 C 35.28125 -48.609375 35.003906 -50.015625 34.453125 -51.171875 C 33.898438 -52.335938 33.234375 -53.222656 32.453125 -53.828125 C 31.679688 -54.429688 30.660156 -54.898438 29.390625 -55.234375 C 28.128906 -55.566406 27 -55.757812 26 -55.8125 C 25.007812 -55.875 23.796875 -55.90625 22.359375 -55.90625 L 20.53125 -55.90625 Z M 20.53125 -38.015625 "/></g></g></g><g fill="#ff6900" fill-opacity="1"><g transform="translate(245.824522, 209.999986)"><g><path d="M 21.609375 14.328125 L 17.890625 8.703125 C 18.054688 8.472656 18.273438 8.191406 18.546875 7.859375 C 18.828125 7.535156 19.40625 6.914062 20.28125 6 C 21.164062 5.09375 22.019531 4.289062 22.84375 3.59375 C 23.675781 2.90625 24.644531 2.285156 25.75 1.734375 C 26.851562 1.179688 27.875 0.90625 28.8125 0.90625 L 28.8125 0.578125 C 20.757812 -0.960938 14.257812 -4.9375 9.3125 -11.34375 C 4.375 -17.75 1.90625 -25.367188 1.90625 -34.203125 C 1.90625 -44.140625 5.21875 -52.515625 11.84375 -59.328125 C 18.46875 -66.148438 26.5 -69.5625 35.9375 -69.5625 C 45.4375 -69.5625 53.46875 -66.148438 60.03125 -59.328125 C 66.601562 -52.515625 69.890625 -44.140625 69.890625 -34.203125 C 69.890625 -26.085938 67.707031 -18.9375 63.34375 -12.75 C 58.988281 -6.570312 53.25 -2.40625 46.125 -0.25 L 46.125 0.078125 C 46.457031 0.078125 47.921875 0.335938 50.515625 0.859375 C 53.109375 1.390625 55.179688 1.65625 56.734375 1.65625 C 58.828125 1.65625 60.726562 1.28125 62.4375 0.53125 C 64.15625 -0.207031 65.34375 -0.9375 66 -1.65625 L 67 -2.8125 L 71.875 7.703125 C 71.769531 7.972656 71.59375 8.316406 71.34375 8.734375 C 71.09375 9.148438 70.523438 9.878906 69.640625 10.921875 C 68.765625 11.972656 67.785156 12.910156 66.703125 13.734375 C 65.628906 14.566406 64.191406 15.316406 62.390625 15.984375 C 60.597656 16.648438 58.679688 16.984375 56.640625 16.984375 C 53.273438 16.984375 49.160156 15.90625 44.296875 13.75 C 39.441406 11.59375 35.25 10.515625 31.71875 10.515625 C 29.78125 10.515625 27.96875 10.832031 26.28125 11.46875 C 24.601562 12.101562 23.40625 12.753906 22.6875 13.421875 Z M 18.71875 -34.203125 C 18.71875 -31.554688 19.019531 -29.085938 19.625 -26.796875 C 20.226562 -24.503906 21.179688 -22.414062 22.484375 -20.53125 C 23.785156 -18.65625 25.578125 -17.179688 27.859375 -16.109375 C 30.148438 -15.035156 32.84375 -14.5 35.9375 -14.5 C 41.738281 -14.5 46.046875 -16.375 48.859375 -20.125 C 51.671875 -23.875 53.078125 -28.566406 53.078125 -34.203125 C 53.078125 -39.773438 51.640625 -44.453125 48.765625 -48.234375 C 45.898438 -52.015625 41.625 -53.90625 35.9375 -53.90625 C 30.3125 -53.90625 26.035156 -52 23.109375 -48.1875 C 20.179688 -44.382812 18.71875 -39.722656 18.71875 -34.203125 Z M 18.71875 -34.203125 "/></g></g></g></svg>