<svg xmlns="http://www.w3.org/2000/svg" xmlns:xlink="http://www.w3.org/1999/xlink" width="500" zoomAndPan="magnify" viewBox="0 0 375 374.999991" height="500" preserveAspectRatio="xMidYMid meet" version="1.0"><defs><clipPath id="0e43d911d4"><path d="M 69.191406 69.191406 L 305.441406 69.191406 L 305.441406 305.441406 L 69.191406 305.441406 Z M 69.191406 69.191406 " clip-rule="nonzero"/></clipPath><clipPath id="8c2baabf22"><path d="M 187.5 69.191406 C 122.160156 69.191406 69.191406 122.160156 69.191406 187.5 C 69.191406 252.839844 122.160156 305.804688 187.5 305.804688 C 252.839844 305.804688 305.804688 252.839844 305.804688 187.5 C 305.804688 122.160156 252.839844 69.191406 187.5 69.191406 Z M 187.5 69.191406 " clip-rule="nonzero"/></clipPath><clipPath id="e6c07a2948"><path d="M 123.003906 101.777344 L 269.253906 101.777344 L 269.253906 273.527344 L 123.003906 273.527344 Z M 123.003906 101.777344 " clip-rule="nonzero"/></clipPath></defs><g clip-path="url(#0e43d911d4)"><g clip-path="url(#8c2baabf22)"><path fill="#ff6900" d="M 181.617188 72.339844 C 180.644531 72.390625 179.675781 72.449219 178.707031 72.523438 L 178.253906 66.539062 C 179.273438 66.464844 180.292969 66.398438 181.316406 66.347656 Z M 175.8125 72.777344 C 174.835938 72.875 173.863281 72.984375 172.890625 73.109375 L 172.136719 67.15625 C 173.160156 67.027344 174.1875 66.910156 175.210938 66.808594 Z M 169.988281 73.515625 C 169.023438 73.660156 168.066406 73.820312 167.105469 73.988281 L 166.054688 68.082031 C 167.0625 67.902344 168.070312 67.738281 169.082031 67.582031 Z M 164.253906 74.535156 C 163.292969 74.734375 162.335938 74.941406 161.382812 75.164062 L 160.027344 69.316406 C 161.03125 69.085938 162.039062 68.863281 163.050781 68.660156 Z M 158.535156 75.859375 C 157.59375 76.105469 156.65625 76.359375 155.71875 76.625 L 154.070312 70.859375 C 155.054688 70.578125 156.042969 70.308594 157.035156 70.050781 Z M 152.929688 77.464844 C 151.996094 77.757812 151.066406 78.0625 150.140625 78.378906 L 148.199219 72.703125 C 149.171875 72.367188 150.152344 72.046875 151.132812 71.738281 Z M 147.386719 79.359375 C 146.472656 79.699219 145.566406 80.050781 144.660156 80.410156 L 142.429688 74.839844 C 143.382812 74.460938 144.335938 74.09375 145.296875 73.734375 Z M 141.964844 81.53125 C 141.070312 81.917969 140.175781 82.316406 139.289062 82.722656 L 136.777344 77.273438 C 137.710938 76.84375 138.648438 76.425781 139.59375 76.019531 Z M 136.648438 83.980469 C 135.773438 84.410156 134.90625 84.851562 134.042969 85.304688 L 131.257812 79.992188 C 132.167969 79.515625 133.078125 79.050781 134 78.597656 Z M 131.472656 86.695312 C 130.621094 87.167969 129.773438 87.65625 128.933594 88.152344 L 125.882812 82.984375 C 126.765625 82.464844 127.65625 81.953125 128.554688 81.453125 Z M 126.433594 89.671875 C 125.609375 90.1875 124.789062 90.714844 123.976562 91.25 L 120.667969 86.246094 C 121.523438 85.683594 122.382812 85.128906 123.253906 84.585938 Z M 121.558594 92.894531 C 120.757812 93.453125 119.964844 94.023438 119.179688 94.601562 L 115.621094 89.769531 C 116.449219 89.164062 117.28125 88.566406 118.121094 87.976562 Z M 116.847656 96.367188 C 116.078125 96.964844 115.316406 97.570312 114.5625 98.1875 L 110.765625 93.542969 C 111.558594 92.894531 112.359375 92.253906 113.167969 91.628906 Z M 112.320312 100.066406 C 111.582031 100.703125 110.851562 101.351562 110.128906 102.003906 L 106.101562 97.558594 C 106.859375 96.867188 107.628906 96.191406 108.40625 95.519531 Z M 107.984375 103.996094 C 107.277344 104.667969 106.582031 105.347656 105.890625 106.039062 L 101.644531 101.800781 C 102.371094 101.074219 103.101562 100.359375 103.847656 99.652344 Z M 103.851562 108.132812 C 103.179688 108.84375 102.519531 109.558594 101.867188 110.28125 L 97.410156 106.261719 C 98.097656 105.5 98.792969 104.746094 99.5 104.003906 Z M 99.933594 112.476562 C 99.296875 113.21875 98.671875 113.964844 98.054688 114.722656 L 93.40625 110.933594 C 94.050781 110.136719 94.710938 109.351562 95.378906 108.570312 Z M 96.238281 117.011719 C 95.640625 117.785156 95.054688 118.5625 94.480469 119.347656 L 89.640625 115.796875 C 90.25 114.972656 90.867188 114.152344 91.492188 113.339844 Z M 92.777344 121.730469 C 92.21875 122.53125 91.671875 123.335938 91.136719 124.152344 L 86.128906 120.851562 C 86.691406 119.992188 87.265625 119.144531 87.851562 118.300781 Z M 89.5625 126.609375 C 89.046875 127.4375 88.539062 128.273438 88.046875 129.113281 L 82.875 126.070312 C 83.394531 125.1875 83.925781 124.308594 84.46875 123.4375 Z M 86.59375 131.65625 C 86.121094 132.507812 85.660156 133.363281 85.207031 134.226562 L 79.890625 131.453125 C 80.363281 130.542969 80.847656 129.640625 81.347656 128.746094 Z M 83.890625 136.835938 C 83.460938 137.710938 83.042969 138.589844 82.636719 139.476562 L 77.183594 136.976562 C 77.609375 136.042969 78.050781 135.117188 78.503906 134.195312 Z M 81.449219 142.15625 C 81.066406 143.050781 80.695312 143.949219 80.335938 144.855469 L 74.761719 142.632812 C 75.140625 141.683594 75.53125 140.738281 75.933594 139.796875 Z M 79.289062 147.578125 C 78.953125 148.496094 78.625 149.414062 78.3125 150.339844 L 72.628906 148.40625 C 72.960938 147.433594 73.304688 146.464844 73.660156 145.503906 Z M 77.402344 153.128906 C 77.113281 154.054688 76.835938 154.984375 76.570312 155.917969 L 70.796875 154.28125 C 71.078125 153.296875 71.371094 152.316406 71.671875 151.34375 Z M 75.808594 158.738281 C 75.566406 159.683594 75.335938 160.632812 75.117188 161.582031 L 69.269531 160.242188 C 69.5 159.238281 69.742188 158.242188 69.996094 157.246094 Z M 74.496094 164.453125 C 74.304688 165.402344 74.121094 166.355469 73.953125 167.3125 L 68.046875 166.269531 C 68.222656 165.261719 68.414062 164.261719 68.613281 163.261719 Z M 73.484375 170.191406 C 73.335938 171.160156 73.203125 172.125 73.082031 173.097656 L 67.128906 172.355469 C 67.257812 171.335938 67.394531 170.316406 67.550781 169.300781 Z M 72.757812 176.019531 C 72.660156 176.980469 72.578125 177.945312 72.507812 178.910156 L 66.523438 178.472656 C 66.597656 177.457031 66.6875 176.441406 66.785156 175.429688 Z M 72.328125 181.824219 C 72.28125 182.800781 72.246094 183.777344 72.226562 184.757812 L 66.226562 184.617188 C 66.25 183.589844 66.289062 182.5625 66.335938 181.535156 Z M 72.191406 187.710938 C 72.195312 188.695312 72.207031 189.675781 72.234375 190.660156 L 66.238281 190.820312 C 66.210938 189.789062 66.195312 188.753906 66.191406 187.71875 Z M 72.351562 193.589844 C 72.402344 194.558594 72.464844 195.53125 72.539062 196.5 L 66.554688 196.960938 C 66.476562 195.941406 66.410156 194.921875 66.359375 193.898438 Z M 72.796875 199.390625 C 72.898438 200.367188 73.011719 201.34375 73.136719 202.316406 L 67.183594 203.078125 C 67.054688 202.054688 66.933594 201.03125 66.828125 200.003906 Z M 73.546875 205.21875 C 73.695312 206.179688 73.855469 207.136719 74.027344 208.09375 L 68.121094 209.160156 C 67.941406 208.152344 67.769531 207.144531 67.617188 206.132812 Z M 74.578125 210.949219 C 74.777344 211.910156 74.988281 212.867188 75.210938 213.820312 L 69.367188 215.183594 C 69.132812 214.179688 68.910156 213.175781 68.703125 212.164062 Z M 75.910156 216.664062 C 76.15625 217.605469 76.414062 218.542969 76.683594 219.476562 L 70.917969 221.136719 C 70.636719 220.15625 70.363281 219.167969 70.105469 218.175781 Z M 77.527344 222.269531 C 77.820312 223.199219 78.128906 224.128906 78.445312 225.054688 L 72.773438 227.007812 C 72.4375 226.035156 72.113281 225.054688 71.804688 224.074219 Z M 79.433594 227.808594 C 79.773438 228.71875 80.125 229.625 80.488281 230.53125 L 74.921875 232.769531 C 74.539062 231.820312 74.171875 230.863281 73.8125 229.90625 Z M 81.613281 233.222656 C 82 234.121094 82.398438 235.011719 82.8125 235.898438 L 77.367188 238.421875 C 76.933594 237.488281 76.515625 236.550781 76.105469 235.605469 Z M 84.074219 238.535156 C 84.503906 239.410156 84.949219 240.277344 85.402344 241.136719 L 80.09375 243.933594 C 79.613281 243.027344 79.148438 242.113281 78.695312 241.195312 Z M 86.796875 243.707031 C 87.273438 244.558594 87.757812 245.402344 88.257812 246.242188 L 83.097656 249.304688 C 82.574219 248.421875 82.0625 247.53125 81.558594 246.636719 Z M 89.78125 248.738281 C 90.300781 249.566406 90.828125 250.382812 91.367188 251.195312 L 86.367188 254.511719 C 85.800781 253.660156 85.246094 252.796875 84.699219 251.929688 Z M 93.015625 253.609375 C 93.574219 254.410156 94.144531 255.199219 94.726562 255.984375 L 89.902344 259.554688 C 89.289062 258.726562 88.691406 257.894531 88.101562 257.054688 Z M 96.492188 258.316406 C 97.09375 259.082031 97.699219 259.84375 98.320312 260.597656 L 93.679688 264.402344 C 93.03125 263.613281 92.390625 262.8125 91.761719 262.003906 Z M 100.203125 262.835938 C 100.839844 263.574219 101.488281 264.304688 102.144531 265.027344 L 97.703125 269.0625 C 97.015625 268.300781 96.332031 267.535156 95.664062 266.757812 Z M 104.136719 267.164062 C 104.8125 267.871094 105.496094 268.566406 106.1875 269.253906 L 101.953125 273.507812 C 101.226562 272.785156 100.507812 272.050781 99.800781 271.3125 Z M 108.285156 271.289062 C 108.992188 271.960938 109.710938 272.621094 110.4375 273.273438 L 106.425781 277.734375 C 105.660156 277.050781 104.90625 276.355469 104.164062 275.648438 Z M 112.636719 275.199219 C 113.378906 275.835938 114.125 276.457031 114.882812 277.074219 L 111.101562 281.730469 C 110.304688 281.085938 109.519531 280.429688 108.738281 279.761719 Z M 117.175781 278.886719 C 117.949219 279.480469 118.730469 280.066406 119.515625 280.644531 L 115.972656 285.484375 C 115.144531 284.878906 114.324219 284.265625 113.511719 283.640625 Z M 121.898438 282.339844 C 122.703125 282.894531 123.507812 283.441406 124.324219 283.976562 L 121.03125 288.992188 C 120.175781 288.429688 119.324219 287.855469 118.480469 287.273438 Z M 126.785156 285.546875 C 127.617188 286.0625 128.449219 286.566406 129.292969 287.058594 L 126.257812 292.234375 C 125.375 291.714844 124.496094 291.1875 123.625 290.644531 Z M 131.835938 288.507812 C 132.691406 288.976562 133.546875 289.4375 134.410156 289.886719 L 131.644531 295.210938 C 130.738281 294.738281 129.832031 294.253906 128.9375 293.757812 Z M 137.019531 291.199219 C 137.898438 291.628906 138.78125 292.042969 139.667969 292.449219 L 137.175781 297.90625 C 136.242188 297.480469 135.3125 297.042969 134.390625 296.59375 Z M 142.347656 293.632812 C 143.242188 294.011719 144.144531 294.382812 145.046875 294.742188 L 142.835938 300.320312 C 141.886719 299.941406 140.9375 299.554688 139.996094 299.152344 Z M 147.773438 295.78125 C 148.691406 296.117188 149.613281 296.441406 150.535156 296.753906 L 148.613281 302.4375 C 147.640625 302.109375 146.671875 301.769531 145.707031 301.414062 Z M 153.328125 297.660156 C 154.253906 297.945312 155.183594 298.222656 156.117188 298.484375 L 154.488281 304.257812 C 153.507812 303.980469 152.527344 303.691406 151.550781 303.390625 Z M 158.9375 299.242188 C 159.886719 299.484375 160.835938 299.710938 161.785156 299.929688 L 160.453125 305.78125 C 159.453125 305.550781 158.453125 305.308594 157.457031 305.054688 Z M 164.65625 300.542969 C 165.605469 300.734375 166.558594 300.914062 167.515625 301.082031 L 166.480469 306.992188 C 165.476562 306.816406 164.472656 306.628906 163.472656 306.425781 Z M 170.398438 301.546875 C 171.363281 301.691406 172.332031 301.820312 173.304688 301.941406 L 172.574219 307.898438 C 171.550781 307.769531 170.53125 307.632812 169.515625 307.480469 Z M 176.222656 302.261719 C 177.1875 302.355469 178.152344 302.4375 179.117188 302.507812 L 178.6875 308.492188 C 177.671875 308.417969 176.65625 308.332031 175.644531 308.234375 Z M 182.03125 302.679688 C 183.007812 302.722656 183.988281 302.757812 184.96875 302.777344 L 184.835938 308.777344 C 183.808594 308.753906 182.78125 308.71875 181.753906 308.671875 Z M 187.917969 302.804688 C 188.902344 302.800781 189.886719 302.785156 190.867188 302.757812 L 191.039062 308.753906 C 190.007812 308.785156 188.972656 308.800781 187.941406 308.804688 Z M 193.796875 302.636719 C 194.769531 302.585938 195.738281 302.519531 196.707031 302.445312 L 197.175781 308.425781 C 196.160156 308.503906 195.140625 308.574219 194.117188 308.628906 Z M 199.601562 302.179688 C 200.578125 302.078125 201.550781 301.964844 202.523438 301.835938 L 203.296875 307.785156 C 202.273438 307.917969 201.25 308.039062 200.222656 308.148438 Z M 205.421875 301.421875 C 206.382812 301.273438 207.34375 301.109375 208.296875 300.9375 L 209.375 306.839844 C 208.367188 307.023438 207.359375 307.191406 206.347656 307.351562 Z M 211.15625 300.378906 C 212.113281 300.179688 213.070312 299.964844 214.023438 299.742188 L 215.398438 305.582031 C 214.394531 305.816406 213.390625 306.042969 212.378906 306.25 Z M 216.863281 299.035156 C 217.804688 298.789062 218.742188 298.527344 219.675781 298.257812 L 221.347656 304.019531 C 220.363281 304.304688 219.378906 304.578125 218.386719 304.835938 Z M 222.464844 297.410156 C 223.398438 297.113281 224.328125 296.804688 225.25 296.484375 L 227.214844 302.15625 C 226.242188 302.492188 225.265625 302.816406 224.285156 303.128906 Z M 228.003906 295.492188 C 228.914062 295.152344 229.820312 294.796875 230.722656 294.433594 L 232.972656 299.996094 C 232.023438 300.378906 231.070312 300.75 230.109375 301.109375 Z M 233.414062 293.300781 C 234.3125 292.914062 235.203125 292.511719 236.085938 292.101562 L 238.617188 297.539062 C 237.6875 297.972656 236.75 298.394531 235.804688 298.804688 Z M 238.722656 290.832031 C 239.59375 290.398438 240.460938 289.957031 241.320312 289.5 L 244.125 294.804688 C 243.21875 295.285156 242.308594 295.75 241.390625 296.207031 Z M 243.886719 288.101562 C 244.738281 287.625 245.585938 287.132812 246.421875 286.636719 L 249.492188 291.789062 C 248.609375 292.316406 247.722656 292.828125 246.828125 293.332031 Z M 248.914062 285.105469 C 249.738281 284.585938 250.554688 284.058594 251.367188 283.519531 L 254.695312 288.511719 C 253.84375 289.078125 252.984375 289.636719 252.117188 290.183594 Z M 253.78125 281.863281 C 254.578125 281.300781 255.371094 280.730469 256.152344 280.148438 L 259.730469 284.96875 C 258.90625 285.578125 258.074219 286.179688 257.234375 286.769531 Z M 258.480469 278.378906 C 259.246094 277.777344 260.003906 277.167969 260.757812 276.546875 L 264.574219 281.179688 C 263.78125 281.832031 262.980469 282.472656 262.175781 283.101562 Z M 262.992188 274.660156 C 263.730469 274.019531 264.457031 273.371094 265.179688 272.714844 L 269.222656 277.148438 C 268.464844 277.839844 267.699219 278.519531 266.921875 279.191406 Z M 267.316406 270.714844 C 268.019531 270.042969 268.714844 269.359375 269.398438 268.664062 L 273.660156 272.890625 C 272.941406 273.617188 272.207031 274.335938 271.46875 275.046875 Z M 271.433594 266.5625 C 272.101562 265.851562 272.761719 265.136719 273.410156 264.410156 L 277.878906 268.410156 C 277.195312 269.175781 276.503906 269.929688 275.800781 270.675781 Z M 275.335938 262.203125 C 275.96875 261.460938 276.589844 260.710938 277.203125 259.953125 L 281.867188 263.726562 C 281.222656 264.523438 280.570312 265.3125 279.90625 266.09375 Z M 279.011719 257.65625 C 279.605469 256.882812 280.191406 256.105469 280.765625 255.316406 L 285.613281 258.847656 C 285.011719 259.675781 284.398438 260.5 283.773438 261.3125 Z M 282.457031 252.929688 C 283.011719 252.125 283.554688 251.316406 284.089844 250.5 L 289.109375 253.785156 C 288.550781 254.640625 287.980469 255.492188 287.394531 256.335938 Z M 285.65625 248.035156 C 286.167969 247.207031 286.671875 246.371094 287.164062 245.527344 L 292.34375 248.550781 C 291.828125 249.4375 291.300781 250.316406 290.761719 251.191406 Z M 288.605469 242.980469 C 289.074219 242.125 289.535156 241.265625 289.980469 240.402344 L 295.308594 243.160156 C 294.839844 244.070312 294.359375 244.972656 293.863281 245.871094 Z M 291.289062 237.792969 C 291.714844 236.914062 292.132812 236.03125 292.535156 235.144531 L 297.996094 237.625 C 297.574219 238.558594 297.136719 239.488281 296.6875 240.410156 Z M 293.714844 232.457031 C 294.09375 231.5625 294.460938 230.664062 294.816406 229.761719 L 300.398438 231.960938 C 300.023438 232.910156 299.636719 233.855469 299.238281 234.800781 Z M 295.851562 227.027344 C 296.1875 226.113281 296.511719 225.191406 296.820312 224.265625 L 302.507812 226.175781 C 302.179688 227.152344 301.839844 228.121094 301.488281 229.085938 Z M 297.71875 221.472656 C 298.003906 220.546875 298.28125 219.617188 298.542969 218.679688 L 304.320312 220.300781 C 304.042969 221.285156 303.753906 222.265625 303.453125 223.238281 Z M 299.292969 215.859375 C 299.53125 214.910156 299.761719 213.960938 299.976562 213.007812 L 305.828125 214.328125 C 305.601562 215.332031 305.363281 216.332031 305.109375 217.328125 Z M 300.585938 210.140625 C 300.773438 209.191406 300.949219 208.234375 301.117188 207.28125 L 307.027344 208.300781 C 306.855469 209.308594 306.667969 210.3125 306.46875 211.3125 Z M 301.578125 204.394531 C 301.71875 203.429688 301.847656 202.457031 301.964844 201.488281 L 307.921875 202.207031 C 307.800781 203.230469 307.664062 204.25 307.515625 205.265625 Z M 302.28125 198.570312 C 302.375 197.605469 302.453125 196.640625 302.519531 195.675781 L 308.507812 196.09375 C 308.433594 197.109375 308.351562 198.125 308.253906 199.140625 Z M 302.6875 192.757812 C 302.730469 191.78125 302.765625 190.800781 302.78125 189.824219 L 308.78125 189.941406 C 308.761719 190.972656 308.726562 192 308.683594 193.027344 Z M 302.804688 186.871094 C 302.800781 185.886719 302.78125 184.902344 302.75 183.921875 L 308.75 183.742188 C 308.78125 184.769531 308.796875 185.804688 308.804688 186.835938 Z M 302.625 180.996094 C 302.570312 180.023438 302.503906 179.054688 302.425781 178.085938 L 308.40625 177.605469 C 308.492188 178.621094 308.558594 179.640625 308.617188 180.664062 Z M 302.15625 175.191406 C 302.054688 174.214844 301.9375 173.242188 301.808594 172.269531 L 307.757812 171.484375 C 307.894531 172.507812 308.015625 173.53125 308.125 174.558594 Z M 301.390625 169.371094 C 301.238281 168.410156 301.074219 167.453125 300.898438 166.496094 L 306.800781 165.410156 C 306.984375 166.417969 307.15625 167.425781 307.316406 168.4375 Z M 300.335938 163.636719 C 300.132812 162.679688 299.917969 161.726562 299.695312 160.773438 L 305.53125 159.386719 C 305.769531 160.390625 305.996094 161.394531 306.207031 162.402344 Z M 298.980469 157.933594 C 298.734375 156.992188 298.472656 156.058594 298.199219 155.125 L 303.960938 153.441406 C 304.246094 154.425781 304.519531 155.410156 304.78125 156.398438 Z M 297.347656 152.332031 C 297.046875 151.402344 296.738281 150.476562 296.417969 149.550781 L 302.082031 147.578125 C 302.421875 148.550781 302.746094 149.527344 303.0625 150.503906 Z M 295.417969 146.800781 C 295.078125 145.890625 294.722656 144.988281 294.355469 144.085938 L 299.914062 141.824219 C 300.296875 142.773438 300.671875 143.726562 301.035156 144.683594 Z M 293.21875 141.394531 C 292.828125 140.496094 292.425781 139.609375 292.011719 138.722656 L 297.449219 136.183594 C 297.882812 137.113281 298.304688 138.050781 298.71875 138.992188 Z M 290.742188 136.089844 C 290.304688 135.21875 289.859375 134.355469 289.402344 133.496094 L 294.703125 130.679688 C 295.183594 131.585938 295.652344 132.496094 296.109375 133.410156 Z M 288 130.929688 C 287.519531 130.078125 287.03125 129.234375 286.527344 128.398438 L 291.679688 125.316406 C 292.203125 126.199219 292.71875 127.085938 293.226562 127.980469 Z M 284.996094 125.90625 C 284.476562 125.085938 283.945312 124.269531 283.402344 123.460938 L 288.390625 120.121094 C 288.960938 120.976562 289.519531 121.832031 290.066406 122.699219 Z M 281.746094 121.046875 C 281.179688 120.25 280.609375 119.460938 280.027344 118.679688 L 284.835938 115.09375 C 285.449219 115.917969 286.054688 116.75 286.644531 117.585938 Z M 278.25 116.355469 C 277.648438 115.589844 277.035156 114.832031 276.414062 114.082031 L 281.039062 110.257812 C 281.691406 111.046875 282.335938 111.847656 282.96875 112.652344 Z M 274.523438 111.847656 C 273.882812 111.113281 273.234375 110.386719 272.574219 109.667969 L 277 105.613281 C 277.691406 106.371094 278.375 107.136719 279.050781 107.910156 Z M 270.574219 107.535156 C 269.898438 106.832031 269.210938 106.136719 268.519531 105.453125 L 272.734375 101.183594 C 273.464844 101.902344 274.183594 102.632812 274.894531 103.371094 Z M 266.410156 103.425781 C 265.699219 102.757812 264.980469 102.097656 264.253906 101.449219 L 268.25 96.972656 C 269.015625 97.65625 269.769531 98.347656 270.519531 99.050781 Z M 262.046875 99.527344 C 261.304688 98.898438 260.550781 98.277344 259.792969 97.664062 L 263.558594 92.992188 C 264.355469 93.636719 265.144531 94.289062 265.929688 94.953125 Z M 257.492188 95.859375 C 256.71875 95.265625 255.9375 94.683594 255.148438 94.113281 L 258.671875 89.253906 C 259.5 89.859375 260.324219 90.46875 261.140625 91.09375 Z M 252.757812 92.421875 C 251.953125 91.871094 251.144531 91.328125 250.328125 90.796875 L 253.601562 85.769531 C 254.460938 86.328125 255.3125 86.898438 256.15625 87.480469 Z M 247.859375 89.234375 C 247.027344 88.722656 246.191406 88.222656 245.347656 87.730469 L 248.363281 82.542969 C 249.25 83.058594 250.128906 83.585938 251.003906 84.125 Z M 242.796875 86.292969 C 241.941406 85.824219 241.082031 85.367188 240.21875 84.921875 L 242.964844 79.589844 C 243.875 80.058594 244.78125 80.539062 245.679688 81.027344 Z M 237.605469 83.617188 C 236.726562 83.191406 235.84375 82.78125 234.953125 82.378906 L 237.425781 76.910156 C 238.359375 77.335938 239.289062 77.769531 240.214844 78.214844 Z M 232.265625 81.203125 C 231.371094 80.828125 230.472656 80.460938 229.566406 80.105469 L 231.757812 74.519531 C 232.707031 74.894531 233.65625 75.277344 234.597656 75.675781 Z M 226.832031 79.074219 C 225.917969 78.742188 224.996094 78.421875 224.066406 78.113281 L 225.96875 72.421875 C 226.945312 72.746094 227.914062 73.085938 228.878906 73.433594 Z M 221.277344 77.21875 C 220.347656 76.933594 219.417969 76.664062 218.480469 76.402344 L 220.089844 70.621094 C 221.074219 70.894531 222.054688 71.183594 223.03125 71.480469 Z M 215.65625 75.65625 C 214.710938 75.417969 213.757812 75.191406 212.804688 74.976562 L 214.117188 69.121094 C 215.121094 69.347656 216.121094 69.585938 217.117188 69.835938 Z M 209.9375 74.375 C 208.988281 74.1875 208.03125 74.011719 207.074219 73.847656 L 208.085938 67.933594 C 209.09375 68.105469 210.097656 68.289062 211.097656 68.488281 Z M 204.191406 73.390625 C 203.222656 73.25 202.253906 73.125 201.28125 73.007812 L 201.988281 67.050781 C 203.011719 67.171875 204.03125 67.304688 205.050781 67.453125 Z M 198.367188 72.699219 C 197.402344 72.609375 196.4375 72.53125 195.46875 72.464844 L 195.875 66.476562 C 196.894531 66.546875 197.910156 66.628906 198.925781 66.722656 Z M 192.550781 72.300781 C 191.574219 72.257812 190.59375 72.230469 189.613281 72.210938 L 189.722656 66.210938 C 190.75 66.230469 191.78125 66.261719 192.808594 66.308594 Z M 187.5 72.191406 C 186.515625 72.191406 185.53125 72.207031 184.550781 72.230469 L 184.398438 66.230469 C 185.429688 66.207031 186.464844 66.191406 187.5 66.191406 Z M 187.5 72.191406 " fill-opacity="1" fill-rule="nonzero"/></g></g><g clip-path="url(#e6c07a2948)"><path fill="#ff6900" d="M 154.441406 168.683594 C 155.597656 168.683594 156.535156 169.617188 156.535156 170.773438 L 156.535156 237.679688 C 156.535156 238.835938 155.597656 239.769531 154.441406 239.769531 C 153.289062 239.769531 152.351562 238.835938 152.351562 237.679688 L 152.351562 170.773438 C 152.351562 169.617188 153.289062 168.683594 154.441406 168.683594 Z M 169.078125 170.773438 L 169.078125 237.679688 C 169.078125 238.835938 170.011719 239.769531 171.167969 239.769531 C 172.324219 239.769531 173.261719 238.835938 173.261719 237.679688 L 173.261719 170.773438 C 173.261719 169.617188 172.324219 168.683594 171.167969 168.683594 C 170.011719 168.683594 169.078125 169.617188 169.078125 170.773438 Z M 185.804688 170.773438 L 185.804688 237.679688 C 185.804688 238.835938 186.738281 239.769531 187.894531 239.769531 C 189.050781 239.769531 189.988281 238.835938 189.988281 237.679688 L 189.988281 170.773438 C 189.988281 169.617188 189.050781 168.683594 187.894531 168.683594 C 186.738281 168.683594 185.804688 169.617188 185.804688 170.773438 Z M 202.53125 170.773438 L 202.53125 237.679688 C 202.53125 238.835938 203.464844 239.769531 204.621094 239.769531 C 205.777344 239.769531 206.710938 238.835938 206.710938 237.679688 L 206.710938 170.773438 C 206.710938 169.617188 205.777344 168.683594 204.621094 168.683594 C 203.464844 168.683594 202.53125 169.617188 202.53125 170.773438 Z M 215.074219 124.777344 C 215.074219 119.011719 219.765625 114.320312 225.53125 114.320312 C 231.292969 114.320312 235.984375 119.011719 235.984375 124.777344 C 235.984375 130.539062 231.292969 135.230469 225.53125 135.230469 C 219.765625 135.230469 215.074219 130.539062 215.074219 124.777344 Z M 219.257812 124.777344 C 219.257812 128.234375 222.070312 131.046875 225.53125 131.046875 C 228.988281 131.046875 231.800781 128.234375 231.800781 124.777344 C 231.800781 121.316406 228.988281 118.503906 225.53125 118.503906 C 222.070312 118.503906 219.257812 121.316406 219.257812 124.777344 Z M 135.609375 200.308594 L 140.238281 164.074219 C 140.578125 161.4375 141.992188 159.023438 144.132812 157.449219 C 146.136719 155.972656 148.550781 155.386719 151.023438 155.820312 C 158.828125 157.269531 166.828125 153.414062 170.699219 146.675781 C 175.804688 151.597656 183.628906 153.320312 190.417969 150.6875 C 193.6875 152.140625 197.226562 152.324219 200.511719 151.320312 C 203.957031 154.4375 208.335938 156.136719 212.984375 156.136719 C 222.320312 156.136719 230.03125 149.28125 231.496094 140.351562 C 230.074219 140.898438 228.558594 141.214844 226.984375 141.355469 C 225.21875 147.453125 219.644531 151.957031 212.984375 151.957031 C 209.027344 151.957031 205.320312 150.363281 202.542969 147.464844 C 201.941406 146.847656 201.027344 146.652344 200.234375 146.980469 C 197.429688 148.140625 194.320312 148.042969 191.449219 146.542969 C 190.878906 146.242188 190.203125 146.226562 189.625 146.484375 C 183.296875 149.328125 175.800781 147.140625 171.851562 141.644531 C 171.398438 141.015625 170.640625 140.683594 169.859375 140.796875 C 169.089844 140.90625 168.441406 141.433594 168.183594 142.171875 C 166.113281 148.023438 160.59375 151.957031 154.441406 151.957031 C 153.558594 151.957031 152.667969 151.871094 151.648438 151.683594 C 148.136719 151.066406 144.585938 151.921875 141.652344 154.082031 C 138.597656 156.332031 136.574219 159.78125 136.089844 163.542969 L 131.445312 200.042969 C 131.445312 201.199219 130.507812 202.136719 129.351562 202.136719 C 128.199219 202.136719 127.261719 201.199219 127.261719 200.042969 L 127.261719 146.128906 C 127.261719 141.574219 128.980469 137.179688 131.980469 134.058594 C 135.148438 130.769531 137.285156 130.84375 139.550781 131.238281 C 140.4375 131.410156 141.304688 130.980469 141.738281 130.207031 C 144.34375 125.566406 149.214844 122.683594 154.441406 122.683594 C 155.574219 122.683594 156.75 122.855469 158.152344 123.226562 C 158.796875 123.398438 159.476562 123.253906 159.992188 122.835938 C 160.511719 122.417969 160.800781 121.785156 160.773438 121.121094 C 160.765625 120.957031 160.746094 120.792969 160.714844 120.59375 C 160.714844 112.523438 167.28125 105.957031 175.351562 105.957031 C 181.039062 105.957031 186.253906 109.328125 188.636719 114.539062 C 188.875 115.058594 189.316406 115.457031 189.855469 115.648438 C 190.394531 115.832031 190.988281 115.792969 191.5 115.527344 C 197.503906 112.433594 204.539062 115.890625 206.257812 121.925781 C 206.410156 122.460938 206.773438 122.914062 207.261719 123.183594 C 207.75 123.453125 208.328125 123.515625 208.863281 123.355469 L 208.949219 123.335938 C 209.085938 121.753906 209.402344 120.234375 209.953125 118.808594 C 209.835938 118.832031 209.699219 118.839844 209.585938 118.863281 C 206.621094 112.183594 198.621094 108.414062 191.488281 110.980469 C 188.113281 105.332031 181.984375 101.777344 175.351562 101.777344 C 165.628906 101.777344 157.605469 109.1875 156.632812 118.652344 C 149.335938 117.660156 142.730469 121.09375 138.847656 126.921875 C 135.914062 126.648438 132.710938 127.269531 128.964844 131.160156 C 125.171875 135.109375 123.082031 140.421875 123.082031 146.125 L 123.082031 200.042969 C 123.082031 203.503906 125.894531 206.316406 129.351562 206.316406 C 132.8125 206.316406 135.625 203.503906 135.609375 200.308594 Z M 124.445312 126.8125 C 125.542969 125.671875 126.632812 124.742188 127.707031 123.964844 C 127.445312 122.867188 127.261719 121.742188 127.261719 120.59375 C 127.261719 112.523438 133.828125 105.957031 141.898438 105.957031 C 146.003906 105.957031 149.777344 107.671875 152.46875 110.484375 C 153.054688 109.167969 153.738281 107.910156 154.53125 106.722656 C 151.15625 103.652344 146.71875 101.777344 141.898438 101.777344 C 131.523438 101.777344 123.082031 110.21875 123.082031 120.59375 C 123.082031 122.820312 123.488281 124.996094 124.238281 127.050781 C 124.3125 126.972656 124.371094 126.890625 124.445312 126.8125 Z M 269.4375 179.136719 L 269.4375 229.316406 C 269.4375 244.300781 257.242188 256.496094 242.257812 256.496094 L 227.621094 256.496094 L 227.621094 262.769531 C 227.621094 268.53125 222.929688 273.222656 217.167969 273.222656 L 141.898438 273.222656 C 136.132812 273.222656 131.445312 268.53125 131.445312 262.769531 L 131.445312 212.382812 C 132.949219 212.128906 134.351562 211.597656 135.625 210.855469 L 135.625 252.3125 L 223.4375 252.3125 L 223.4375 160.097656 C 224.917969 159.417969 226.316406 158.597656 227.621094 157.65625 L 227.621094 168.683594 L 242.257812 168.683594 C 248.019531 168.683594 252.710938 173.371094 252.710938 179.136719 L 252.710938 229.316406 C 252.710938 235.078125 248.019531 239.769531 242.257812 239.769531 L 227.621094 239.769531 L 227.621094 252.316406 L 242.257812 252.316406 C 254.9375 252.316406 265.253906 241.996094 265.253906 229.316406 L 265.253906 179.136719 C 265.253906 166.457031 254.9375 156.136719 242.257812 156.136719 L 229.523438 156.136719 C 230.9375 154.890625 232.210938 153.492188 233.320312 151.957031 L 242.257812 151.957031 C 257.242188 151.957031 269.4375 164.148438 269.4375 179.136719 Z M 227.621094 235.589844 L 242.257812 235.589844 C 245.714844 235.589844 248.527344 232.773438 248.527344 229.316406 L 248.527344 179.136719 C 248.527344 175.679688 245.714844 172.863281 242.257812 172.863281 L 227.621094 172.863281 Z M 223.4375 256.496094 L 135.625 256.496094 L 135.625 262.769531 C 135.625 266.226562 138.441406 269.039062 141.898438 269.039062 L 217.167969 269.039062 C 220.625 269.039062 223.4375 266.226562 223.4375 262.769531 Z M 223.4375 256.496094 " fill-opacity="1" fill-rule="nonzero"/></g></svg>