<svg xmlns="http://www.w3.org/2000/svg" xmlns:xlink="http://www.w3.org/1999/xlink" width="500" zoomAndPan="magnify" viewBox="0 0 375 374.999991" height="500" preserveAspectRatio="xMidYMid meet" version="1.0"><defs><g/><clipPath id="eaad4f35cf"><path d="M 30.136719 158.015625 L 99.886719 158.015625 L 99.886719 227.765625 L 30.136719 227.765625 Z M 30.136719 158.015625 " clip-rule="nonzero"/></clipPath><clipPath id="a86bbe9437"><path d="M 65.035156 158.015625 C 45.761719 158.015625 30.136719 173.640625 30.136719 192.914062 C 30.136719 212.1875 45.761719 227.8125 65.035156 227.8125 C 84.308594 227.8125 99.933594 212.1875 99.933594 192.914062 C 99.933594 173.640625 84.308594 158.015625 65.035156 158.015625 Z M 65.035156 158.015625 " clip-rule="nonzero"/></clipPath><clipPath id="a02b6f9db9"><path d="M 46.015625 167.628906 L 89.515625 167.628906 L 89.515625 217.878906 L 46.015625 217.878906 Z M 46.015625 167.628906 " clip-rule="nonzero"/></clipPath></defs><g fill="#ff6900" fill-opacity="1"><g transform="translate(114.429825, 218.093786)"><g><path d="M 3.734375 -51.34375 L 19.671875 -51.34375 C 24.484375 -51.34375 28.316406 -50.316406 31.171875 -48.265625 C 34.035156 -46.210938 35.46875 -42.882812 35.46875 -38.28125 C 35.46875 -33.132812 33.332031 -29.460938 29.0625 -27.265625 C 36.363281 -25.972656 40.015625 -21.65625 40.015625 -14.3125 C 40.015625 -10 38.519531 -6.535156 35.53125 -3.921875 C 32.550781 -1.304688 28.445312 0 23.21875 0 L 3.734375 0 Z M 15.4375 -31.234375 L 16.375 -31.234375 C 18.976562 -31.234375 20.921875 -31.691406 22.203125 -32.609375 C 23.492188 -33.523438 24.140625 -35.019531 24.140625 -37.09375 C 24.140625 -40.570312 21.550781 -42.3125 16.375 -42.3125 L 15.4375 -42.3125 Z M 15.4375 -9.03125 L 19.109375 -9.03125 C 24.828125 -9.03125 27.6875 -10.9375 27.6875 -14.75 C 27.6875 -17.03125 26.972656 -18.664062 25.546875 -19.65625 C 24.117188 -20.65625 21.972656 -21.15625 19.109375 -21.15625 L 15.4375 -21.15625 Z M 15.4375 -9.03125 "/></g></g></g><g fill="#ff6900" fill-opacity="1"><g transform="translate(151.02526, 218.093786)"><g><path d="M 36.03125 -14.4375 L 12.875 -14.4375 C 12.875 -12.195312 13.597656 -10.535156 15.046875 -9.453125 C 16.503906 -8.378906 18.085938 -7.84375 19.796875 -7.84375 C 21.578125 -7.84375 22.984375 -8.078125 24.015625 -8.546875 C 25.054688 -9.023438 26.238281 -9.972656 27.5625 -11.390625 L 35.53125 -7.40625 C 32.21875 -1.84375 26.703125 0.9375 18.984375 0.9375 C 14.171875 0.9375 10.039062 -0.710938 6.59375 -4.015625 C 3.15625 -7.316406 1.4375 -11.289062 1.4375 -15.9375 C 1.4375 -20.582031 3.15625 -24.5625 6.59375 -27.875 C 10.039062 -31.195312 14.171875 -32.859375 18.984375 -32.859375 C 24.046875 -32.859375 28.160156 -31.394531 31.328125 -28.46875 C 34.503906 -25.539062 36.09375 -21.363281 36.09375 -15.9375 C 36.09375 -15.1875 36.070312 -14.6875 36.03125 -14.4375 Z M 13.1875 -20.53125 L 25.328125 -20.53125 C 25.078125 -22.195312 24.421875 -23.472656 23.359375 -24.359375 C 22.304688 -25.253906 20.953125 -25.703125 19.296875 -25.703125 C 17.460938 -25.703125 16.003906 -25.222656 14.921875 -24.265625 C 13.847656 -23.316406 13.269531 -22.070312 13.1875 -20.53125 Z M 13.1875 -20.53125 "/></g></g></g><g fill="#ff6900" fill-opacity="1"><g transform="translate(183.699699, 218.093786)"><g><path d="M 36.03125 -14.4375 L 12.875 -14.4375 C 12.875 -12.195312 13.597656 -10.535156 15.046875 -9.453125 C 16.503906 -8.378906 18.085938 -7.84375 19.796875 -7.84375 C 21.578125 -7.84375 22.984375 -8.078125 24.015625 -8.546875 C 25.054688 -9.023438 26.238281 -9.972656 27.5625 -11.390625 L 35.53125 -7.40625 C 32.21875 -1.84375 26.703125 0.9375 18.984375 0.9375 C 14.171875 0.9375 10.039062 -0.710938 6.59375 -4.015625 C 3.15625 -7.316406 1.4375 -11.289062 1.4375 -15.9375 C 1.4375 -20.582031 3.15625 -24.5625 6.59375 -27.875 C 10.039062 -31.195312 14.171875 -32.859375 18.984375 -32.859375 C 24.046875 -32.859375 28.160156 -31.394531 31.328125 -28.46875 C 34.503906 -25.539062 36.09375 -21.363281 36.09375 -15.9375 C 36.09375 -15.1875 36.070312 -14.6875 36.03125 -14.4375 Z M 13.1875 -20.53125 L 25.328125 -20.53125 C 25.078125 -22.195312 24.421875 -23.472656 23.359375 -24.359375 C 22.304688 -25.253906 20.953125 -25.703125 19.296875 -25.703125 C 17.460938 -25.703125 16.003906 -25.222656 14.921875 -24.265625 C 13.847656 -23.316406 13.269531 -22.070312 13.1875 -20.53125 Z M 13.1875 -20.53125 "/></g></g></g><g fill="#ff6900" fill-opacity="1"><g transform="translate(216.374138, 218.093786)"><g><path d="M 3.734375 -51.34375 L 22.09375 -51.34375 C 27.03125 -51.34375 31.050781 -50.023438 34.15625 -47.390625 C 37.269531 -44.753906 38.828125 -40.988281 38.828125 -36.09375 C 38.828125 -32.320312 37.882812 -29.160156 36 -26.609375 C 34.113281 -24.054688 31.550781 -22.257812 28.3125 -21.21875 L 45.984375 0 L 31.125 0 L 15.4375 -20.28125 L 15.4375 0 L 3.734375 0 Z M 15.4375 -28.5625 L 16.796875 -28.5625 C 17.878906 -28.5625 18.789062 -28.582031 19.53125 -28.625 C 20.28125 -28.664062 21.132812 -28.8125 22.09375 -29.0625 C 23.050781 -29.3125 23.816406 -29.664062 24.390625 -30.125 C 24.972656 -30.582031 25.472656 -31.242188 25.890625 -32.109375 C 26.304688 -32.984375 26.515625 -34.039062 26.515625 -35.28125 C 26.515625 -36.53125 26.304688 -37.585938 25.890625 -38.453125 C 25.472656 -39.328125 24.972656 -39.992188 24.390625 -40.453125 C 23.816406 -40.910156 23.050781 -41.265625 22.09375 -41.515625 C 21.132812 -41.765625 20.28125 -41.910156 19.53125 -41.953125 C 18.789062 -41.992188 17.878906 -42.015625 16.796875 -42.015625 L 15.4375 -42.015625 Z M 15.4375 -28.5625 "/></g></g></g><g fill="#ff6900" fill-opacity="1"><g transform="translate(256.081479, 218.093786)"><g><path d="M 16.25 10.765625 L 13.4375 6.53125 C 13.5625 6.363281 13.726562 6.15625 13.9375 5.90625 C 14.144531 5.65625 14.582031 5.1875 15.25 4.5 C 15.914062 3.820312 16.554688 3.222656 17.171875 2.703125 C 17.796875 2.179688 18.519531 1.710938 19.34375 1.296875 C 20.175781 0.890625 20.945312 0.6875 21.65625 0.6875 L 21.65625 0.4375 C 15.601562 -0.726562 10.71875 -3.71875 7 -8.53125 C 3.289062 -13.34375 1.4375 -19.066406 1.4375 -25.703125 C 1.4375 -33.171875 3.925781 -39.46875 8.90625 -44.59375 C 13.882812 -49.71875 19.921875 -52.28125 27.015625 -52.28125 C 34.148438 -52.28125 40.1875 -49.71875 45.125 -44.59375 C 50.0625 -39.46875 52.53125 -33.171875 52.53125 -25.703125 C 52.53125 -19.597656 50.890625 -14.222656 47.609375 -9.578125 C 44.328125 -4.929688 40.015625 -1.800781 34.671875 -0.1875 L 34.671875 0.0625 C 34.910156 0.0625 36.003906 0.257812 37.953125 0.65625 C 39.910156 1.050781 41.46875 1.25 42.625 1.25 C 44.207031 1.25 45.640625 0.96875 46.921875 0.40625 C 48.210938 -0.15625 49.101562 -0.707031 49.59375 -1.25 L 50.34375 -2.109375 L 54.015625 5.78125 C 53.929688 5.988281 53.796875 6.25 53.609375 6.5625 C 53.421875 6.875 52.992188 7.421875 52.328125 8.203125 C 51.671875 8.992188 50.9375 9.703125 50.125 10.328125 C 49.320312 10.953125 48.242188 11.515625 46.890625 12.015625 C 45.546875 12.515625 44.101562 12.765625 42.5625 12.765625 C 40.03125 12.765625 36.9375 11.953125 33.28125 10.328125 C 29.632812 8.710938 26.484375 7.90625 23.828125 7.90625 C 22.378906 7.90625 21.019531 8.140625 19.75 8.609375 C 18.488281 9.085938 17.585938 9.578125 17.046875 10.078125 Z M 14.0625 -25.703125 C 14.0625 -23.710938 14.289062 -21.851562 14.75 -20.125 C 15.207031 -18.40625 15.921875 -16.835938 16.890625 -15.421875 C 17.867188 -14.015625 19.21875 -12.90625 20.9375 -12.09375 C 22.664062 -11.289062 24.691406 -10.890625 27.015625 -10.890625 C 31.367188 -10.890625 34.601562 -12.300781 36.71875 -15.125 C 38.832031 -17.945312 39.890625 -21.472656 39.890625 -25.703125 C 39.890625 -29.890625 38.8125 -33.40625 36.65625 -36.25 C 34.5 -39.09375 31.285156 -40.515625 27.015625 -40.515625 C 22.773438 -40.515625 19.554688 -39.082031 17.359375 -36.21875 C 15.160156 -33.351562 14.0625 -29.847656 14.0625 -25.703125 Z M 14.0625 -25.703125 "/></g></g></g><g clip-path="url(#eaad4f35cf)"><g clip-path="url(#a86bbe9437)"><path fill="#ff6900" d="M 62.128906 159.640625 C 61.652344 159.679688 61.175781 159.734375 60.703125 159.792969 L 60.316406 156.820312 C 60.835938 156.753906 61.351562 156.695312 61.871094 156.652344 Z M 59.296875 160.007812 C 58.828125 160.089844 58.359375 160.179688 57.894531 160.28125 L 57.257812 157.347656 C 57.761719 157.238281 58.273438 157.140625 58.78125 157.050781 Z M 56.488281 160.621094 C 56.023438 160.742188 55.5625 160.875 55.101562 161.015625 L 54.210938 158.152344 C 54.710938 157.996094 55.214844 157.851562 55.722656 157.71875 Z M 53.742188 161.472656 C 53.296875 161.632812 52.851562 161.804688 52.410156 161.984375 L 51.277344 159.207031 C 51.757812 159.011719 52.242188 158.824219 52.730469 158.648438 Z M 51.09375 162.558594 C 50.65625 162.757812 50.222656 162.96875 49.796875 163.1875 L 48.425781 160.519531 C 48.890625 160.28125 49.363281 160.050781 49.839844 159.832031 Z M 48.53125 163.871094 C 48.117188 164.109375 47.707031 164.351562 47.300781 164.609375 L 45.707031 162.066406 C 46.148438 161.789062 46.59375 161.523438 47.046875 161.265625 Z M 46.105469 165.394531 C 45.710938 165.667969 45.320312 165.949219 44.9375 166.238281 L 43.128906 163.84375 C 43.546875 163.527344 43.972656 163.222656 44.402344 162.925781 Z M 43.808594 167.128906 C 43.4375 167.433594 43.074219 167.746094 42.71875 168.066406 L 40.714844 165.835938 C 41.101562 165.488281 41.496094 165.144531 41.898438 164.8125 Z M 41.671875 169.050781 C 41.328125 169.382812 40.996094 169.726562 40.667969 170.074219 L 38.476562 168.023438 C 38.835938 167.644531 39.199219 167.269531 39.574219 166.90625 Z M 39.707031 171.144531 C 39.394531 171.507812 39.089844 171.878906 38.792969 172.253906 L 36.4375 170.398438 C 36.761719 169.988281 37.09375 169.585938 37.433594 169.1875 Z M 37.925781 173.402344 C 37.644531 173.792969 37.375 174.1875 37.109375 174.585938 L 34.605469 172.9375 C 34.890625 172.503906 35.1875 172.074219 35.492188 171.648438 Z M 36.347656 175.800781 C 36.105469 176.210938 35.867188 176.628906 35.640625 177.046875 L 33 175.621094 C 33.25 175.164062 33.507812 174.710938 33.773438 174.261719 Z M 34.980469 178.328125 C 34.773438 178.761719 34.570312 179.199219 34.378906 179.640625 L 31.628906 178.445312 C 31.835938 177.964844 32.054688 177.488281 32.285156 177.015625 Z M 33.839844 180.964844 C 33.667969 181.410156 33.507812 181.855469 33.355469 182.308594 L 30.511719 181.355469 C 30.675781 180.863281 30.851562 180.375 31.039062 179.890625 Z M 32.929688 183.679688 C 32.796875 184.144531 32.675781 184.609375 32.5625 185.078125 L 29.644531 184.375 C 29.769531 183.867188 29.902344 183.359375 30.046875 182.851562 Z M 32.253906 186.488281 C 32.164062 186.953125 32.085938 187.417969 32.015625 187.886719 L 29.046875 187.4375 C 29.125 186.929688 29.210938 186.417969 29.3125 185.914062 Z M 31.832031 189.304688 C 31.78125 189.78125 31.738281 190.261719 31.707031 190.738281 L 28.714844 190.546875 C 28.746094 190.023438 28.792969 189.503906 28.847656 188.984375 Z M 31.644531 192.195312 C 31.640625 192.433594 31.636719 192.671875 31.636719 192.914062 C 31.636719 193.164062 31.640625 193.410156 31.644531 193.660156 L 28.648438 193.722656 C 28.640625 193.453125 28.636719 193.183594 28.636719 192.914062 C 28.636719 192.652344 28.640625 192.390625 28.644531 192.128906 Z M 31.710938 195.113281 C 31.742188 195.589844 31.78125 196.070312 31.832031 196.546875 L 28.851562 196.871094 C 28.792969 196.351562 28.75 195.828125 28.714844 195.304688 Z M 32.015625 197.964844 C 32.089844 198.433594 32.167969 198.898438 32.261719 199.363281 L 29.316406 199.9375 C 29.214844 199.433594 29.128906 198.925781 29.050781 198.414062 Z M 32.566406 200.773438 C 32.679688 201.242188 32.804688 201.707031 32.9375 202.171875 L 30.054688 203 C 29.910156 202.496094 29.773438 201.988281 29.652344 201.476562 Z M 33.363281 203.542969 C 33.515625 203.992188 33.675781 204.441406 33.847656 204.886719 L 31.046875 205.960938 C 30.859375 205.476562 30.683594 204.988281 30.519531 204.496094 Z M 34.390625 206.210938 C 34.582031 206.652344 34.78125 207.089844 34.992188 207.519531 L 32.296875 208.835938 C 32.066406 208.363281 31.847656 207.886719 31.636719 207.40625 Z M 35.652344 208.800781 C 35.878906 209.222656 36.117188 209.636719 36.363281 210.046875 L 33.789062 211.589844 C 33.519531 211.140625 33.261719 210.6875 33.011719 210.230469 Z M 37.125 211.261719 C 37.386719 211.660156 37.660156 212.054688 37.941406 212.445312 L 35.507812 214.199219 C 35.203125 213.777344 34.90625 213.347656 34.617188 212.910156 Z M 38.808594 213.59375 C 39.105469 213.96875 39.410156 214.335938 39.722656 214.699219 L 37.449219 216.660156 C 37.109375 216.261719 36.777344 215.859375 36.453125 215.449219 Z M 40.683594 215.769531 C 41.011719 216.117188 41.34375 216.460938 41.6875 216.796875 L 39.589844 218.941406 C 39.21875 218.574219 38.851562 218.203125 38.496094 217.824219 Z M 42.734375 217.777344 C 43.09375 218.097656 43.457031 218.410156 43.824219 218.714844 L 41.917969 221.03125 C 41.515625 220.699219 41.121094 220.359375 40.730469 220.011719 Z M 44.957031 219.605469 C 45.339844 219.894531 45.730469 220.171875 46.125 220.445312 L 44.421875 222.917969 C 43.992188 222.621094 43.566406 222.316406 43.148438 222 Z M 47.320312 221.234375 C 47.726562 221.488281 48.136719 221.730469 48.550781 221.96875 L 47.070312 224.578125 C 46.617188 224.320312 46.167969 224.050781 45.726562 223.773438 Z M 49.816406 222.652344 C 50.246094 222.871094 50.675781 223.082031 51.113281 223.28125 L 49.859375 226.007812 C 49.386719 225.789062 48.914062 225.558594 48.449219 225.320312 Z M 52.433594 223.851562 C 52.875 224.03125 53.316406 224.203125 53.765625 224.363281 L 52.753906 227.1875 C 52.265625 227.011719 51.78125 226.828125 51.300781 226.632812 Z M 55.125 224.816406 C 55.582031 224.960938 56.046875 225.09375 56.507812 225.214844 L 55.746094 228.117188 C 55.238281 227.984375 54.734375 227.839844 54.234375 227.683594 Z M 57.917969 225.550781 C 58.382812 225.652344 58.847656 225.746094 59.316406 225.824219 L 58.808594 228.78125 C 58.296875 228.695312 57.789062 228.59375 57.28125 228.484375 Z M 60.726562 226.039062 C 61.199219 226.097656 61.675781 226.148438 62.152344 226.191406 L 61.898438 229.179688 C 61.378906 229.132812 60.859375 229.078125 60.34375 229.011719 Z M 63.597656 226.28125 C 64.078125 226.300781 64.554688 226.3125 65.035156 226.3125 L 65.0625 226.3125 L 65.0625 229.3125 L 65.035156 229.3125 C 64.515625 229.3125 63.992188 229.300781 63.472656 229.28125 Z M 66.519531 226.28125 C 67.003906 226.257812 67.484375 226.226562 67.964844 226.1875 L 68.226562 229.175781 C 67.703125 229.21875 67.179688 229.253906 66.652344 229.277344 Z M 69.390625 226.03125 C 69.863281 225.96875 70.332031 225.898438 70.800781 225.816406 L 71.3125 228.773438 C 70.804688 228.863281 70.292969 228.9375 69.78125 229.007812 Z M 72.199219 225.542969 C 72.671875 225.441406 73.140625 225.328125 73.609375 225.203125 L 74.375 228.101562 C 73.867188 228.238281 73.355469 228.359375 72.839844 228.472656 Z M 74.992188 224.804688 C 75.449219 224.660156 75.902344 224.507812 76.351562 224.347656 L 77.367188 227.171875 C 76.875 227.347656 76.382812 227.511719 75.886719 227.667969 Z M 77.683594 223.835938 C 78.125 223.652344 78.566406 223.460938 79.003906 223.261719 L 80.257812 225.984375 C 79.78125 226.207031 79.304688 226.414062 78.820312 226.613281 Z M 80.296875 222.628906 C 80.722656 222.410156 81.144531 222.183594 81.5625 221.945312 L 83.046875 224.550781 C 82.59375 224.808594 82.132812 225.058594 81.671875 225.296875 Z M 82.789062 221.207031 C 83.195312 220.953125 83.59375 220.691406 83.988281 220.417969 L 85.691406 222.886719 C 85.261719 223.183594 84.828125 223.46875 84.386719 223.746094 Z M 85.15625 219.574219 C 85.535156 219.285156 85.914062 218.988281 86.28125 218.683594 L 88.191406 221 C 87.789062 221.332031 87.378906 221.65625 86.964844 221.96875 Z M 87.371094 217.746094 C 87.726562 217.425781 88.074219 217.097656 88.417969 216.761719 L 90.519531 218.90625 C 90.144531 219.269531 89.765625 219.628906 89.378906 219.976562 Z M 89.421875 215.734375 C 89.75 215.386719 90.070312 215.027344 90.382812 214.664062 L 92.65625 216.621094 C 92.316406 217.015625 91.96875 217.40625 91.613281 217.785156 Z M 91.292969 213.554688 C 91.589844 213.179688 91.878906 212.796875 92.160156 212.40625 L 94.59375 214.160156 C 94.289062 214.582031 93.976562 215 93.652344 215.410156 Z M 92.976562 211.222656 C 93.238281 210.824219 93.492188 210.417969 93.734375 210.007812 L 96.3125 211.546875 C 96.042969 211.992188 95.769531 212.433594 95.484375 212.867188 Z M 94.445312 208.757812 C 94.671875 208.335938 94.890625 207.910156 95.101562 207.480469 L 97.800781 208.789062 C 97.570312 209.257812 97.332031 209.722656 97.085938 210.183594 Z M 95.703125 206.167969 C 95.890625 205.730469 96.070312 205.289062 96.242188 204.84375 L 99.042969 205.914062 C 98.859375 206.402344 98.664062 206.882812 98.457031 207.359375 Z M 96.722656 203.496094 C 96.875 203.042969 97.015625 202.585938 97.148438 202.125 L 100.03125 202.949219 C 99.890625 203.453125 99.734375 203.953125 99.570312 204.449219 Z M 97.515625 200.726562 C 97.628906 200.261719 97.730469 199.789062 97.820312 199.316406 L 100.765625 199.890625 C 100.667969 200.40625 100.554688 200.917969 100.433594 201.425781 Z M 98.0625 197.917969 C 98.132812 197.449219 98.195312 196.976562 98.246094 196.5 L 101.226562 196.820312 C 101.171875 197.335938 101.105469 197.851562 101.027344 198.367188 Z M 98.367188 195.066406 C 98.398438 194.582031 98.417969 194.097656 98.429688 193.609375 L 101.425781 193.671875 C 101.417969 194.203125 101.394531 194.730469 101.359375 195.253906 Z M 98.425781 192.144531 C 98.414062 191.660156 98.394531 191.175781 98.363281 190.691406 L 101.355469 190.496094 C 101.390625 191.023438 101.414062 191.550781 101.425781 192.078125 Z M 98.238281 189.257812 C 98.183594 188.785156 98.125 188.3125 98.050781 187.839844 L 101.019531 187.386719 C 101.097656 187.902344 101.164062 188.417969 101.21875 188.933594 Z M 97.808594 186.441406 C 97.714844 185.96875 97.613281 185.5 97.5 185.03125 L 100.414062 184.324219 C 100.539062 184.835938 100.652344 185.347656 100.753906 185.863281 Z M 97.128906 183.636719 C 96.996094 183.175781 96.855469 182.71875 96.703125 182.265625 L 99.546875 181.308594 C 99.710938 181.804688 99.867188 182.300781 100.011719 182.804688 Z M 96.21875 180.917969 C 96.046875 180.476562 95.863281 180.035156 95.675781 179.597656 L 98.425781 178.398438 C 98.632812 178.875 98.828125 179.355469 99.015625 179.84375 Z M 95.070312 178.285156 C 94.859375 177.855469 94.640625 177.429688 94.410156 177.007812 L 97.046875 175.578125 C 97.296875 176.035156 97.535156 176.5 97.765625 176.972656 Z M 93.699219 175.761719 C 93.453125 175.351562 93.199219 174.949219 92.9375 174.546875 L 95.441406 172.898438 C 95.726562 173.332031 96.003906 173.773438 96.273438 174.21875 Z M 92.121094 173.367188 C 91.839844 172.976562 91.550781 172.59375 91.25 172.21875 L 93.605469 170.355469 C 93.929688 170.765625 94.242188 171.183594 94.550781 171.609375 Z M 90.335938 171.109375 C 90.023438 170.746094 89.703125 170.390625 89.375 170.042969 L 91.558594 167.988281 C 91.917969 168.367188 92.265625 168.753906 92.605469 169.148438 Z M 88.367188 169.015625 C 88.027344 168.683594 87.675781 168.355469 87.320312 168.035156 L 89.320312 165.800781 C 89.710938 166.148438 90.089844 166.507812 90.464844 166.871094 Z M 86.230469 167.097656 C 85.859375 166.792969 85.480469 166.5 85.097656 166.210938 L 86.902344 163.8125 C 87.320312 164.128906 87.730469 164.449219 88.132812 164.78125 Z M 83.929688 165.371094 C 83.535156 165.097656 83.136719 164.835938 82.730469 164.582031 L 84.324219 162.039062 C 84.765625 162.316406 85.199219 162.601562 85.628906 162.898438 Z M 81.5 163.847656 C 81.082031 163.613281 80.660156 163.382812 80.234375 163.167969 L 81.601562 160.496094 C 82.066406 160.734375 82.527344 160.980469 82.980469 161.238281 Z M 78.9375 162.539062 C 78.503906 162.335938 78.0625 162.148438 77.617188 161.964844 L 78.75 159.1875 C 79.234375 159.382812 79.714844 159.59375 80.1875 159.808594 Z M 76.285156 161.457031 C 75.835938 161.296875 75.382812 161.144531 74.925781 161.003906 L 75.8125 158.136719 C 76.308594 158.292969 76.804688 158.457031 77.296875 158.632812 Z M 73.539062 160.609375 C 73.074219 160.484375 72.605469 160.371094 72.132812 160.269531 L 72.765625 157.339844 C 73.28125 157.449219 73.792969 157.574219 74.300781 157.707031 Z M 70.730469 160 C 70.265625 159.917969 69.796875 159.847656 69.324219 159.789062 L 69.703125 156.8125 C 70.21875 156.878906 70.730469 156.953125 71.242188 157.042969 Z M 67.894531 159.636719 C 67.414062 159.59375 66.933594 159.566406 66.449219 159.546875 L 66.574219 156.546875 C 67.101562 156.570312 67.625 156.601562 68.148438 156.648438 Z M 65.035156 159.515625 C 64.546875 159.515625 64.0625 159.527344 63.574219 159.546875 L 63.445312 156.550781 C 63.976562 156.527344 64.503906 156.515625 65.035156 156.515625 Z M 65.035156 159.515625 " fill-opacity="1" fill-rule="nonzero"/></g></g><g clip-path="url(#a02b6f9db9)"><path fill="#ff6900" d="M 55.289062 187.367188 C 55.628906 187.367188 55.902344 187.644531 55.902344 187.984375 L 55.902344 207.722656 C 55.902344 208.0625 55.628906 208.339844 55.289062 208.339844 C 54.945312 208.339844 54.671875 208.0625 54.671875 207.722656 L 54.671875 187.984375 C 54.671875 187.644531 54.945312 187.367188 55.289062 187.367188 Z M 59.605469 187.984375 L 59.605469 207.722656 C 59.605469 208.0625 59.878906 208.339844 60.222656 208.339844 C 60.5625 208.339844 60.839844 208.0625 60.839844 207.722656 L 60.839844 187.984375 C 60.839844 187.644531 60.5625 187.367188 60.222656 187.367188 C 59.878906 187.367188 59.605469 187.644531 59.605469 187.984375 Z M 64.539062 187.984375 L 64.539062 207.722656 C 64.539062 208.0625 64.816406 208.339844 65.15625 208.339844 C 65.496094 208.339844 65.773438 208.0625 65.773438 207.722656 L 65.773438 187.984375 C 65.773438 187.644531 65.496094 187.367188 65.15625 187.367188 C 64.816406 187.367188 64.539062 187.644531 64.539062 187.984375 Z M 69.472656 187.984375 L 69.472656 207.722656 C 69.472656 208.0625 69.75 208.339844 70.089844 208.339844 C 70.429688 208.339844 70.707031 208.0625 70.707031 207.722656 L 70.707031 187.984375 C 70.707031 187.644531 70.429688 187.367188 70.089844 187.367188 C 69.75 187.367188 69.472656 187.644531 69.472656 187.984375 Z M 73.175781 174.414062 C 73.175781 172.714844 74.558594 171.328125 76.257812 171.328125 C 77.960938 171.328125 79.34375 172.714844 79.34375 174.414062 C 79.34375 176.113281 77.960938 177.496094 76.257812 177.496094 C 74.558594 177.496094 73.175781 176.113281 73.175781 174.414062 Z M 74.410156 174.414062 C 74.410156 175.433594 75.238281 176.265625 76.257812 176.265625 C 77.277344 176.265625 78.109375 175.433594 78.109375 174.414062 C 78.109375 173.394531 77.277344 172.5625 76.257812 172.5625 C 75.238281 172.5625 74.410156 173.394531 74.410156 174.414062 Z M 49.730469 196.695312 L 51.097656 186.007812 C 51.195312 185.230469 51.613281 184.515625 52.246094 184.050781 C 52.835938 183.617188 53.550781 183.445312 54.277344 183.574219 C 56.582031 184 58.941406 182.863281 60.082031 180.875 C 61.589844 182.328125 63.898438 182.835938 65.898438 182.058594 C 66.863281 182.488281 67.910156 182.539062 68.878906 182.246094 C 69.894531 183.164062 71.1875 183.664062 72.558594 183.664062 C 75.3125 183.664062 77.585938 181.644531 78.019531 179.007812 C 77.597656 179.171875 77.152344 179.265625 76.6875 179.304688 C 76.167969 181.105469 74.523438 182.433594 72.558594 182.433594 C 71.390625 182.433594 70.296875 181.960938 69.476562 181.109375 C 69.300781 180.925781 69.03125 180.867188 68.796875 180.964844 C 67.96875 181.304688 67.050781 181.277344 66.203125 180.835938 C 66.035156 180.746094 65.835938 180.742188 65.667969 180.820312 C 63.800781 181.65625 61.585938 181.011719 60.421875 179.390625 C 60.289062 179.203125 60.066406 179.105469 59.835938 179.140625 C 59.609375 179.171875 59.417969 179.328125 59.339844 179.546875 C 58.730469 181.273438 57.101562 182.433594 55.289062 182.433594 C 55.027344 182.433594 54.761719 182.40625 54.460938 182.351562 C 53.425781 182.171875 52.378906 182.421875 51.511719 183.058594 C 50.613281 183.722656 50.015625 184.742188 49.875 185.851562 L 48.503906 196.617188 C 48.503906 196.960938 48.226562 197.234375 47.886719 197.234375 C 47.546875 197.234375 47.269531 196.960938 47.269531 196.617188 L 47.269531 180.710938 C 47.269531 179.371094 47.777344 178.074219 48.660156 177.152344 C 49.59375 176.183594 50.226562 176.203125 50.894531 176.320312 C 51.15625 176.371094 51.410156 176.242188 51.539062 176.015625 C 52.308594 174.648438 53.746094 173.796875 55.289062 173.796875 C 55.621094 173.796875 55.96875 173.847656 56.382812 173.957031 C 56.570312 174.007812 56.773438 173.964844 56.925781 173.839844 C 57.078125 173.71875 57.164062 173.53125 57.15625 173.335938 C 57.152344 173.285156 57.148438 173.238281 57.136719 173.179688 C 57.136719 170.800781 59.074219 168.863281 61.453125 168.863281 C 63.132812 168.863281 64.671875 169.855469 65.375 171.394531 C 65.445312 171.546875 65.574219 171.664062 65.734375 171.71875 C 65.894531 171.773438 66.070312 171.761719 66.21875 171.6875 C 67.992188 170.773438 70.066406 171.792969 70.574219 173.574219 C 70.617188 173.730469 70.726562 173.863281 70.871094 173.945312 C 71.011719 174.023438 71.183594 174.042969 71.339844 173.996094 L 71.367188 173.988281 C 71.40625 173.523438 71.5 173.074219 71.664062 172.652344 C 71.628906 172.660156 71.589844 172.664062 71.554688 172.671875 C 70.679688 170.699219 68.320312 169.585938 66.214844 170.34375 C 65.222656 168.675781 63.410156 167.628906 61.453125 167.628906 C 58.585938 167.628906 56.21875 169.816406 55.933594 172.609375 C 53.78125 172.316406 51.832031 173.328125 50.6875 175.046875 C 49.820312 174.964844 48.875 175.148438 47.769531 176.296875 C 46.652344 177.460938 46.035156 179.03125 46.035156 180.710938 L 46.035156 196.617188 C 46.035156 197.640625 46.863281 198.46875 47.886719 198.46875 C 48.90625 198.46875 49.734375 197.640625 49.730469 196.695312 Z M 46.4375 175.015625 C 46.761719 174.679688 47.082031 174.40625 47.398438 174.175781 C 47.324219 173.851562 47.269531 173.519531 47.269531 173.179688 C 47.269531 170.800781 49.207031 168.863281 51.585938 168.863281 C 52.796875 168.863281 53.910156 169.367188 54.707031 170.199219 C 54.878906 169.808594 55.078125 169.4375 55.3125 169.089844 C 54.316406 168.183594 53.007812 167.628906 51.585938 167.628906 C 48.523438 167.628906 46.035156 170.121094 46.035156 173.179688 C 46.035156 173.835938 46.15625 174.480469 46.375 175.085938 C 46.398438 175.0625 46.417969 175.039062 46.4375 175.015625 Z M 89.210938 190.449219 L 89.210938 205.253906 C 89.210938 209.675781 85.613281 213.273438 81.191406 213.273438 L 76.875 213.273438 L 76.875 215.125 C 76.875 216.824219 75.492188 218.207031 73.792969 218.207031 L 51.585938 218.207031 C 49.886719 218.207031 48.503906 216.824219 48.503906 215.125 L 48.503906 200.257812 C 48.945312 200.183594 49.359375 200.027344 49.734375 199.808594 L 49.734375 212.039062 L 75.640625 212.039062 L 75.640625 184.835938 C 76.078125 184.632812 76.488281 184.390625 76.875 184.113281 L 76.875 187.367188 L 81.191406 187.367188 C 82.894531 187.367188 84.277344 188.75 84.277344 190.449219 L 84.277344 205.253906 C 84.277344 206.953125 82.894531 208.339844 81.191406 208.339844 L 76.875 208.339844 L 76.875 212.039062 L 81.191406 212.039062 C 84.933594 212.039062 87.976562 208.996094 87.976562 205.253906 L 87.976562 190.449219 C 87.976562 186.710938 84.933594 183.667969 81.191406 183.667969 L 77.4375 183.667969 C 77.855469 183.296875 78.230469 182.886719 78.558594 182.433594 L 81.191406 182.433594 C 85.613281 182.433594 89.210938 186.03125 89.210938 190.449219 Z M 76.875 207.105469 L 81.191406 207.105469 C 82.214844 207.105469 83.042969 206.273438 83.042969 205.253906 L 83.042969 190.449219 C 83.042969 189.429688 82.214844 188.601562 81.191406 188.601562 L 76.875 188.601562 Z M 75.640625 213.273438 L 49.734375 213.273438 L 49.734375 215.125 C 49.734375 216.144531 50.566406 216.972656 51.585938 216.972656 L 73.792969 216.972656 C 74.8125 216.972656 75.640625 216.144531 75.640625 215.125 Z M 75.640625 213.273438 " fill-opacity="1" fill-rule="nonzero"/></g></svg>